<?xml version="1.0" encoding="utf-8"?>
<!-- Generator: Adobe Illustrator 25.4.1, SVG Export Plug-In . SVG Version: 6.00 Build 0)  -->
<svg version="1.1" baseProfile="tiny" id="BMW_GROUP_Next"
	 xmlns="http://www.w3.org/2000/svg" xmlns:xlink="http://www.w3.org/1999/xlink" x="0px" y="0px"
	 viewBox="0 0 651.968506 340.157471" overflow="visible" xml:space="preserve">
<g>
	<path fill="#6F6F6F" d="M4.955339,155.655869h64.000275c20.439285,0,32.826447-3.508499,41.910812-11.146988
		c9.496346-7.638382,14.038521-19.61277,14.038521-34.269386c0-9.702789-2.68364-17.960297-6.399551-23.327255
		c-3.717056-4.954987-7.638969-8.464622-12.18116-11.767204c2.2705-3.716782,5.367287-8.670601,8.258102-13.625557
		c4.336189-7.844437,7.019844-14.656685,7.019844-24.359444c0-12.593475-5.574455-23.534405-14.864799-29.934685
		C98.479256,1.652475,88.156654,0,72.25956,0H4.955339V155.655869L4.955339,155.655869z M29.935667,132.122665V88.356361h40.878494
		c9.496384,0,15.277969,0.826241,20.026108,3.71685c6.193581,4.334702,8.671249,10.114731,8.671249,18.166283
		c0,7.225311-1.858521,12.592278-6.400734,16.309059c-4.542168,3.921631-11.147713,5.574112-23.742012,5.574112H29.935667
		L29.935667,132.122665z M29.935667,64.823158v-41.28875h40.0522c9.084381,0,15.483963,0.413136,19.613029,2.890614
		c4.749283,2.683462,6.606689,7.018164,6.606689,13.212458c0,5.986012-2.064484,10.527897-4.95417,15.688801
		c-1.858521,3.096634-3.923065,6.606266-5.781586,9.49688H29.935667L29.935667,64.823158z"/>
	<polygon fill="#6F6F6F" points="167.228897,155.655869 167.228897,37.365986 203.77121,124.690163 226.686981,124.690163 
		263.229309,37.365986 263.229309,155.655869 287.797638,155.655869 287.797638,0 254.765228,0 215.539246,93.930435 176.106125,0 
		142.660583,0 142.660583,155.655869 167.228897,155.655869 	"/>
	<polygon fill="#6F6F6F" points="362.740814,155.655869 388.547394,58.422913 414.353943,155.655869 447.180359,155.655869 
		477.736267,0 452.548828,0 428.59964,123.244835 401.966827,23.534407 375.335114,23.534407 348.702301,123.244835 324.753082,0 
		299.152496,0 329.708435,155.655869 362.740814,155.655869 	"/>
	<path fill="#6F6F6F" d="M115.821724,334.996552v-81.750137H91.046272v61.312302
		c-5.57444,0.620239-16.309059,1.858398-26.425667,1.858398c-17.54847,0-27.66515-4.334717-33.239582-15.482849
		c-4.542173-9.08374-5.986435-22.502197-5.986435-40.668518c0-18.16745,1.651392-32.204987,6.1936-41.494751
		c5.780434-12.180298,14.65765-16.928146,32.619247-16.928146c5.574432,0,11.768036,0.826248,18.167633,2.064377
		c9.703461,1.858475,19.820122,4.12883,28.28421,6.193207v-24.359451c-6.399582-1.651276-15.276802-3.715637-24.7743-5.574066
		c-7.638985-1.445297-16.103111-2.683502-24.155193-2.683502c-28.697372,0-41.90963,10.735046-50.580883,25.391632
		C2.890817,216.706619,0,235.286072,0,260.678833c0,24.359497,3.096782,42.113831,10.116643,54.292999
		c8.464086,14.657776,20.85125,25.185638,50.788048,25.185638C78.866287,340.157471,100.956932,337.47403,115.821724,334.996552
		L115.821724,334.996552z"/>
	<path fill="#6F6F6F" d="M159.080368,336.647797V279.87735h36.542297l33.446716,56.770447h29.10936l-35.716095-60.486084
		c3.921951-4.128784,10.322647-11.354095,15.276825-17.341217c8.052109-9.908829,13.007446-19.611649,13.007446-33.649185
		c0-13.625595-4.955338-26.218994-13.832581-33.650299c-9.909485-8.463486-21.471512-10.527893-40.465378-10.527893h-62.348892
		v155.654678H159.080368L159.080368,336.647797z M159.080368,255.92984v-50.990417h34.684952
		c13.213425,0,19.818954,1.032227,24.361191,4.128815c5.368393,3.715652,7.225784,9.083679,7.225784,16.309067
		c0,8.257492-3.509872,14.244675-8.050949,20.024704c-2.684784,3.302505-6.193527,7.431305-9.084381,10.527832H159.080368
		L159.080368,255.92984z"/>
	<path fill="#6F6F6F" d="M325.897278,177.483414c-30.555908,0-44.801636,9.908813-54.503937,26.423813
		c-8.052124,13.625671-10.529785,34.475418-10.529785,55.326355c0,24.153473,3.715912,44.384155,11.768005,57.390686
		c9.496399,15.275696,22.916992,23.533203,53.265717,23.533203c26.425659,0,40.464264-7.225311,51.407135-23.121277
		c9.290344-13.211334,13.419464-34.26825,13.419464-57.802612c0-22.296265-3.303955-44.385345-13.419464-58.836014
		C366.568634,184.914719,352.528961,177.483414,325.897278,177.483414L325.897278,177.483414z M325.897278,201.429794
		c14.038513,0,24.980286,3.509628,31.586975,15.070877c5.98761,10.114807,7.845001,26.010757,7.845001,42.73291
		c0,17.341248-1.857391,34.888458-9.909515,45.210358c-7.22583,9.289734-17.135345,11.767212-29.522461,11.767212
		c-14.039734,0-25.807739-2.271515-32.620453-14.038727c-5.36731-9.70282-7.019836-26.423828-7.019836-42.938843
		c0-16.722153,1.445404-33.030121,6.813873-42.73291C299.883545,204.114426,311.857544,201.429794,325.897278,201.429794
		L325.897278,201.429794z"/>
	<path fill="#6F6F6F" d="M406.67569,180.993118v95.787674c0,22.089111,2.477692,37.985046,13.006256,49.133179
		c10.322632,11.354065,23.949188,14.2435,45.007538,14.2435c19.819031,0,33.651581-3.302551,44.181335-13.831573
		c11.147736-11.146942,13.625397-26.217834,13.625397-49.545105v-95.787674H497.51593v96.406754
		c0,16.309052-1.032227,26.011871-7.8461,32.411011c-5.780426,5.16095-14.657684,6.400269-24.980347,6.400269
		c-10.529694,0-19.612946-1.239319-25.187378-6.606262c-6.812683-6.606232-7.845001-16.309052-7.845001-32.205017v-96.406754
		H406.67569L406.67569,180.993118z"/>
	<path fill="#6F6F6F" d="M565.670471,336.647797v-55.738251c16.310181,0,30.142761,0,38.813965-0.61908
		c14.451721-0.826202,26.219666-3.92276,34.890991-12.799377c9.083191-9.496796,12.593079-22.915283,12.593079-37.779083
		c0-14.243515-3.923035-27.456009-12.181152-36.126648c-8.671143-8.876587-19.81897-12.592239-36.955444-12.592239h-62.141724
		v155.654678H565.670471L565.670471,336.647797z M565.670471,256.962036v-52.022614h34.477783
		c9.910645,0,15.897034,1.032227,20.233276,5.368118c4.335083,4.334702,6.193542,10.94101,6.193542,19.404465
		c0,8.257492-1.032227,14.8638-5.161255,19.405655c-4.129028,4.954956-10.116638,6.606216-19.407043,7.225357
		C592.509216,256.962036,579.503113,256.962036,565.670471,256.962036L565.670471,256.962036z"/>
</g>
<g>
</g>
<g>
</g>
<g>
</g>
<g>
</g>
<g>
</g>
<g>
</g>
</svg>
