<svg viewBox="0 0 340.157 340.157" xmlns="http://www.w3.org/2000/svg" xmlns:xlink="http://www.w3.org/1999/xlink" id="BMW" overflow="hidden"><g><g><path d="M170.079 5.9e-05C76.1469 5.9e-05 0 76.1469 0 170.079 0 264.011 76.1469 340.157 170.079 340.157 264.011 340.157 340.157 264.011 340.157 170.079 340.157 76.1469 264.011 5.9e-05 170.079 5.9e-05L170.079 5.9e-05ZM329.097 170.079C329.097 257.902 257.902 329.097 170.079 329.097 82.2556 329.097 11.0608 257.902 11.0608 170.079 11.0608 82.2556 82.2556 11.0608 170.079 11.0608 257.902 11.0608 329.097 82.2556 329.097 170.079Z" fill="#6F6F6F"/><path d="M170.079 69.2207 170.079 74.7511 170.079 74.7511C222.643 74.7511 265.406 117.515 265.406 170.079L270.937 170.079C270.937 114.376 225.781 69.2207 170.079 69.2207L170.079 69.2207M170.079 265.406C117.515 265.406 74.751 222.643 74.751 170.079L69.2206 170.079C69.2206 225.781 114.376 270.937 170.079 270.937" fill="#6F6F6F"/><g><path d="M252.506 97.9238C254.814 100.406 258.142 104.408 260.012 106.834L294.454 84.9696C292.733 82.7183 289.997 79.2995 287.942 76.8935L266.135 91.3171 264.65 92.6001 265.762 90.9767 275.389 71.7541 268.584 64.9484 249.356 74.5786 247.736 75.6864 249.026 74.1944 263.458 52.3931C260.92 50.2315 258.481 48.252 255.366 45.8499L233.498 80.2641C236.269 82.3988 239.918 85.525 242.244 87.655L262.826 76.9759 264.142 76.0083 263.175 77.3267 252.506 97.9238Z" id="W_61_" fill="#6F6F6F"/><path d="M174.364 54.3142 183.773 33.2381 184.373 31.3713 184.203 33.3215 185.193 61.4869C188.493 61.8011 191.902 62.2575 195.267 62.8144L193.736 21.0943C189.032 20.5752 184.351 20.2026 179.672 20.0049L170.404 43.0133 170.078 44.7205 169.751 43.0133 160.484 20.0049C155.804 20.2026 151.124 20.5752 146.42 21.0943L144.889 62.8144C148.253 62.2575 151.662 61.8011 154.963 61.4869L155.953 33.3215 155.783 31.3713 156.382 33.2381 165.792 54.3142 174.364 54.3142Z" id="M_61_" fill="#6F6F6F"/><path d="M98.2459 87.5576C103.683 81.8276 106.771 75.2057 101.322 68.8844 98.361 65.4495 93.3956 64.7001 89.2685 66.3974L88.8599 66.5604 88.994 66.2009C89.6047 64.5737 89.9914 59.3755 85.5593 55.7826 83.401 54.0332 80.6937 53.3857 77.9467 53.6638 72.8403 54.1809 68.9043 57.671 58.2019 69.6085 54.9765 73.2061 50.2757 78.8884 47.4492 82.5714 47.4484 82.5723 76.8367 110.453 76.8367 110.453 86.6023 99.6569 90.5696 95.6468 98.2459 87.5576ZM59.9034 80.7418C65.8218 73.5022 72.1137 66.9359 74.9674 64.3318 75.8685 63.5095 76.8474 62.6964 78.0368 62.3682 79.9673 61.8355 81.9596 63.2089 82.4095 65.1892 82.8619 67.1803 81.6094 69.0659 80.224 70.6262 77.0926 74.1532 65.6182 86.1649 65.6182 86.1649 65.6182 86.1649 59.9033 80.7419 59.9034 80.7418ZM71.4053 91.6566C71.4053 91.6566 82.5883 79.8407 86.2314 76.0575 87.6794 74.554 88.6102 73.6486 89.6127 73.1557 90.9016 72.5221 92.3084 72.3974 93.5695 73.2376 94.808 74.0626 95.3829 75.5021 95.069 76.9164 94.6947 78.6027 93.3227 80.2146 92.177 81.4431 90.6361 83.0955 77.3762 97.2852 77.3574 97.305L71.4053 91.6566Z" id="B_x5F_22d_61_" fill="#6F6F6F"/></g><path d="M170.079 69.2216 170.079 170.08 69.2216 170.08C69.2216 114.337 114.337 69.2216 170.079 69.2216Z" fill="#0066B1"/><path d="M270.937 170.08C270.937 225.822 225.822 270.937 170.079 270.937L170.079 170.08 270.937 170.08Z" fill="#0066B1"/></g><g></g><g></g><g></g><g></g><g></g><g></g></g></svg>